<svg width="180" height="180" viewBox="0 0 512 512" fill="none" xmlns="http://www.w3.org/2000/svg">
  <rect width="512" height="512" rx="136" fill="#080312"/>
  <rect x="28" y="28" width="456" height="456" rx="108" fill="url(#bg)"/>
  <path d="M148 140C148 126.745 158.745 116 172 116H265.5C333.707 116 389 171.293 389 239.5C389 307.707 333.707 363 265.5 363H219C205.745 363 195 352.255 195 339V308.5C195 295.245 205.745 284.5 219 284.5H263C287.576 284.5 307.5 264.576 307.5 240C307.5 215.424 287.576 195.5 263 195.5H220V396C220 409.255 209.255 420 196 420H172C158.745 420 148 409.255 148 396V140Z" fill="white"/>
  <path d="M235 163H265.5C307.75 163 342 197.25 342 239.5C342 281.75 307.75 316 265.5 316H235V284.5H263C287.576 284.5 307.5 264.576 307.5 240C307.5 215.424 287.576 195.5 263 195.5H235V163Z" fill="url(#accent)"/>
  <defs>
    <linearGradient id="bg" x1="72" y1="54" x2="444" y2="470" gradientUnits="userSpaceOnUse">
      <stop stop-color="#9B5CFF"/>
      <stop offset="0.4" stop-color="#39106F"/>
      <stop offset="1" stop-color="#13071F"/>
    </linearGradient>
    <linearGradient id="accent" x1="235" y1="163" x2="342" y2="316" gradientUnits="userSpaceOnUse">
      <stop stop-color="#C79DFF"/>
      <stop offset="1" stop-color="#6D2BFF"/>
    </linearGradient>
  </defs>
</svg>
